<svg xmlns="http://www.w3.org/2000/svg" xmlns:xlink="http://www.w3.org/1999/xlink" fill-rule="nonzero" viewBox="24.89 39.11 206.22 178.4"><g fill="#06b73b" fill-rule="nonzero" stroke="none" stroke-width="1" stroke-linecap="butt" stroke-linejoin="miter" stroke-miterlimit="10" stroke-dasharray="" stroke-dashoffset="0" font-family="none" font-weight="none" font-size="none" text-anchor="none" style="mix-blend-mode: normal"><g transform="scale(3.55556,3.55556)"><path d="M29,11c-12.131,0 -22,8.075 -22,18c0,5.73656 3.3102,10.84157 8.43555,14.13867l-2.78906,5.51172l7.53125,-3.17969c1.61006,0.57938 3.31282,1.0156 5.0957,1.26563c-0.163,-0.895 -0.27344,-1.80333 -0.27344,-2.73633c0,-9.941 9.626,-18 21.5,-18c1.459,0 2.88372,0.12542 4.26172,0.35742c-1.568,-8.677 -10.72872,-15.35742 -21.76172,-15.35742zM21.5,21c1.381,0 2.5,1.119 2.5,2.5c0,1.381 -1.119,2.5 -2.5,2.5c-1.381,0 -2.5,-1.119 -2.5,-2.5c0,-1.381 1.119,-2.5 2.5,-2.5zM36.5,21c1.381,0 2.5,1.119 2.5,2.5c0,1.381 -1.119,2.5 -2.5,2.5c-1.381,0 -2.5,-1.119 -2.5,-2.5c0,-1.381 1.119,-2.5 2.5,-2.5zM46.5,29c-10.201,0 -18.5,6.729 -18.5,15c0,8.271 8.299,15 18.5,15c2.41006,0 4.70694,-0.38557 6.82031,-1.06836l7.67969,3.24219l-2.8125,-5.55859c4.15421,-2.75294 6.8125,-6.93591 6.8125,-11.61523c0,-8.271 -8.299,-15 -18.5,-15zM41.5,40c1.381,0 2.5,1.119 2.5,2.5c0,1.381 -1.119,2.5 -2.5,2.5c-1.381,0 -2.5,-1.119 -2.5,-2.5c0,-1.381 1.119,-2.5 2.5,-2.5zM51.5,40c1.381,0 2.5,1.119 2.5,2.5c0,1.381 -1.119,2.5 -2.5,2.5c-1.381,0 -2.5,-1.119 -2.5,-2.5c0,-1.381 1.119,-2.5 2.5,-2.5z"/></g></g></svg>